<?xml version="1.0" standalone="no"?>
<!DOCTYPE svg PUBLIC "-//W3C//DTD SVG 20010904//EN"
 "http://www.w3.org/TR/2001/REC-SVG-20010904/DTD/svg10.dtd">
<svg version="1.0" xmlns="http://www.w3.org/2000/svg"
 width="1201.000000pt" height="1160.000000pt" viewBox="0 0 1201.000000 1160.000000"
 preserveAspectRatio="xMidYMid meet">

<g transform="translate(0.000000,1160.000000) scale(0.100000,-0.100000)"
fill="#000000" stroke="none">
<path d="M6480 11589 c-47 -4 -129 -16 -183 -28 -54 -11 -105 -17 -113 -14 -8
3 -20 1 -27 -4 -14 -11 -132 -31 -192 -32 -69 -1 -145 -20 -197 -47 -14 -8
-32 -14 -38 -14 -7 0 -47 -16 -90 -35 -43 -19 -87 -35 -98 -35 -11 0 -22 -6
-25 -13 -2 -7 -31 -26 -63 -42 -33 -17 -61 -32 -64 -35 -3 -3 -17 -13 -32 -23
-51 -32 -33 10 27 65 30 27 55 55 55 61 0 14 -119 -104 -120 -118 -1 -19 -45
-63 -84 -83 -21 -11 -50 -31 -65 -44 -14 -13 -73 -58 -131 -100 -58 -43 -128
-96 -157 -119 -29 -22 -57 -38 -63 -34 -5 3 -10 1 -10 -5 0 -7 -7 -9 -16 -6
-8 3 -13 2 -10 -3 8 -13 -21 -34 -35 -25 -7 4 -9 3 -5 -4 3 -6 -9 -22 -27 -36
-34 -26 -64 -35 -52 -16 3 6 1 10 -5 10 -7 0 -10 -7 -6 -15 3 -9 -3 -19 -16
-26 -17 -9 -23 -9 -26 0 -2 7 -13 -1 -23 -18 -10 -17 -24 -31 -31 -31 -6 0
-19 -6 -27 -14 -16 -14 -147 -86 -157 -86 -3 0 -2 4 1 10 8 13 -25 0 -47 -19
-19 -16 -25 -37 -8 -26 6 3 10 2 10 -4 0 -6 -17 -23 -37 -38 -21 -15 -55 -46
-76 -68 -41 -41 -41 -40 -19 25 3 9 -4 6 -17 -7 -11 -12 -21 -24 -21 -27 0 -3
-32 -36 -71 -74 -39 -39 -69 -74 -65 -80 3 -6 30 15 60 46 30 31 57 54 61 51
3 -4 0 -13 -8 -20 -31 -32 -128 -233 -162 -339 -15 -47 -31 -87 -35 -90 -4 -3
-7 -16 -7 -30 1 -68 -3 -92 -16 -87 -8 3 -14 0 -15 -6 -7 -47 -9 -57 -16 -64
-4 -4 -11 -1 -16 7 -8 13 -10 12 -10 -3 0 -10 -8 -21 -17 -24 -25 -9 -113 -73
-113 -82 0 -3 -19 -31 -41 -61 l-42 -55 6 40 7 40 -15 -40 c-9 -22 -13 -46
-10 -53 3 -8 1 -20 -3 -26 -17 -20 -42 -110 -34 -115 5 -3 3 -53 -5 -110 -7
-57 -11 -106 -8 -109 7 -8 12 16 25 133 7 61 14 121 17 135 4 24 70 160 83
170 3 3 16 20 29 38 12 17 26 32 31 32 5 0 32 14 60 30 28 17 53 30 56 30 5 0
2 -61 -11 -239 -3 -35 -10 -71 -16 -80 -8 -12 -9 -9 -6 17 2 17 0 32 -4 32 -5
0 -6 8 -2 18 4 12 3 14 -5 7 -11 -10 -15 -40 -13 -90 1 -24 3 -27 12 -15 16
24 -1 -81 -17 -107 -8 -12 -14 -37 -14 -56 0 -18 -7 -42 -15 -53 -15 -19 -15
-19 -9 1 5 16 4 17 -5 5 -6 -8 -11 -24 -11 -35 0 -11 -46 -74 -102 -139 -57
-65 -131 -152 -165 -195 -35 -42 -80 -91 -100 -110 -21 -18 -30 -30 -20 -27
43 14 -13 -47 -235 -256 -63 -59 -133 -123 -156 -144 -23 -20 -42 -41 -42 -46
0 -6 -18 -37 -40 -70 -22 -33 -40 -66 -40 -72 0 -7 -4 -16 -9 -21 -4 -6 -14
-32 -21 -60 -7 -27 -20 -63 -28 -79 -22 -45 -23 -199 -2 -298 17 -80 63 -251
94 -353 20 -65 94 -285 103 -305 3 -8 5 -19 4 -24 -1 -5 3 -12 8 -16 17 -10
29 -95 21 -140 -6 -33 -5 -38 6 -29 8 6 14 22 14 34 0 13 6 25 13 28 9 3 9 7
-1 19 -7 9 -12 33 -11 55 2 21 -3 48 -10 61 -6 12 -11 28 -10 35 1 6 1 23 0
37 -1 21 -3 22 -12 10 -8 -11 -9 -4 -6 28 4 32 2 42 -7 39 -9 -4 -11 2 -8 19
2 13 10 24 18 24 10 0 12 12 7 50 -4 31 -1 55 6 64 6 7 8 21 5 31 -7 17 -8 17
-20 0 -13 -18 -44 -14 -44 5 0 6 6 8 13 4 9 -6 9 -4 -1 8 -10 13 -10 25 0 62
7 25 16 46 20 46 4 0 8 5 8 10 0 7 -6 7 -19 0 -13 -6 -21 -23 -23 -47 -4 -45
-19 -52 -35 -16 -28 64 -36 89 -39 113 -6 57 -17 89 -27 83 -6 -4 -8 4 -5 21
3 14 1 29 -3 32 -11 6 -12 34 -1 34 4 0 22 -23 40 -50 17 -28 39 -50 48 -50
13 0 12 6 -8 33 -13 17 -30 47 -37 65 -8 17 -17 32 -21 32 -8 0 -30 45 -30 63
0 6 13 -4 29 -23 16 -19 33 -32 37 -27 4 4 -9 21 -29 38 -20 17 -37 39 -37 50
0 20 15 26 25 9 3 -5 13 -10 21 -10 13 0 13 4 -1 30 -8 16 -15 34 -15 39 0 23
48 36 132 36 77 0 88 -2 92 -19 3 -11 -3 -31 -13 -45 -35 -51 -65 -151 -41
-136 6 3 10 20 10 36 0 18 4 28 10 24 6 -4 10 -3 9 2 -3 12 40 106 58 126 25
27 44 22 37 -10 l-6 -28 20 24 c14 18 21 20 24 10 4 -11 8 -10 22 4 10 9 22
17 28 17 12 0 -16 -37 -44 -58 -10 -7 -18 -18 -18 -24 0 -6 9 -3 20 7 15 14
20 15 20 4 0 -8 9 0 20 18 21 34 67 70 77 59 4 -3 -4 -17 -16 -30 -14 -15 -18
-26 -12 -30 6 -4 22 11 37 34 15 22 33 40 40 40 22 0 17 -8 -33 -62 -27 -27
-54 -60 -62 -73 -14 -23 -90 -70 -98 -61 -3 2 0 15 6 28 10 20 10 21 -1 4 -7
-10 -23 -31 -36 -45 l-23 -26 7 25 c4 13 13 30 20 38 8 7 14 19 14 27 0 7 5
15 11 17 7 2 7 11 0 28 -9 23 -10 23 -10 4 -1 -12 -11 -36 -24 -55 -12 -19
-31 -51 -40 -71 -17 -36 -35 -54 -23 -23 12 32 -5 13 -19 -21 -13 -31 -17 -34
-30 -24 -13 10 -15 9 -15 -8 0 -12 -11 -32 -24 -47 -18 -19 -24 -37 -24 -78
l-1 -52 19 55 c10 30 23 56 29 58 6 2 11 10 11 17 0 8 5 17 10 20 13 8 2 -44
-12 -62 -11 -14 -17 -203 -7 -203 9 0 19 39 19 78 0 18 4 31 9 27 6 -3 6 8 0
29 -9 31 -6 39 28 85 27 36 39 46 43 35 4 -10 10 -3 19 21 13 36 8 64 -5 30
-4 -10 -20 -30 -36 -45 -15 -15 -28 -32 -28 -38 0 -6 -5 -14 -11 -18 -9 -5
-10 1 -5 22 5 16 10 38 12 48 4 23 27 45 80 78 65 41 108 44 69 4 -8 -8 -15
-18 -15 -23 0 -5 -16 -46 -35 -92 -25 -60 -31 -80 -18 -70 15 13 16 12 7 -6
-5 -11 -9 -67 -9 -125 0 -58 -4 -111 -8 -117 -5 -7 -5 -18 -1 -25 13 -21 17
-141 4 -133 -6 4 -8 15 -5 26 4 11 2 19 -4 19 -6 0 -11 -18 -11 -40 0 -23 5
-40 11 -40 8 0 9 -18 5 -62 -7 -61 -20 -97 -39 -109 -10 -7 21 -69 34 -69 8 0
19 -81 12 -93 -2 -4 -11 -3 -19 4 -8 6 -14 8 -14 4 0 -4 10 -15 23 -25 21 -17
22 -27 26 -177 1 -87 3 -167 2 -178 0 -10 5 -26 12 -34 9 -11 9 -15 0 -18 -8
-3 -13 -24 -13 -56 0 -29 -7 -65 -15 -81 -8 -15 -15 -42 -15 -58 0 -21 -4 -27
-12 -22 -10 6 -10 4 0 -8 9 -11 12 -40 9 -92 -4 -71 2 -91 19 -65 3 6 9 7 13
3 9 -13 93 -54 110 -54 11 0 11 -3 1 -14 -6 -8 -19 -12 -28 -9 -15 4 -15 3 -2
-6 8 -6 15 -21 16 -33 3 -86 4 -91 18 -79 11 9 15 8 21 -6 5 -10 9 -21 9 -25
1 -3 4 -10 9 -14 4 -4 7 -19 7 -33 l0 -26 -20 25 c-18 23 -20 23 -19 5 0 -11
6 -28 14 -39 8 -10 20 -43 26 -72 7 -29 15 -51 20 -49 4 3 15 2 24 -1 12 -5
15 -14 11 -33 -3 -14 -3 -20 0 -13 11 24 19 12 19 -27 0 -31 -2 -37 -12 -29
-7 6 -13 17 -13 24 0 8 -4 14 -8 14 -12 0 -8 -42 6 -67 14 -26 7 -47 -27 -77
-12 -11 -21 -23 -21 -28 0 -5 14 4 31 21 17 17 35 28 41 25 6 -4 6 -10 -1 -17
-20 -20 -11 -31 9 -12 18 17 20 17 20 1 0 -9 -7 -19 -15 -22 -22 -9 -18 -26 4
-19 16 5 18 2 14 -14 -3 -12 -10 -18 -15 -15 -5 3 -4 -3 3 -14 7 -12 11 -23 8
-26 -8 -9 -143 14 -150 25 -4 8 -8 7 -11 -2 -3 -10 -13 -10 -47 -1 -24 6 -52
7 -63 3 -17 -6 -14 -10 24 -24 24 -9 51 -17 61 -17 9 0 17 -3 17 -7 0 -5 24
-9 53 -11 61 -3 94 -12 80 -21 -7 -4 -7 -15 -1 -30 8 -23 9 -24 23 -5 8 10 14
15 14 9 0 -5 -20 -35 -44 -65 -53 -66 -49 -83 6 -21 28 31 39 38 39 26 0 -10
7 -26 15 -35 9 -10 19 -37 23 -61 6 -34 14 -47 35 -57 16 -8 31 -20 34 -28 3
-8 13 -14 22 -14 27 0 118 -47 124 -64 4 -10 13 -13 23 -9 14 5 16 2 12 -15
-5 -19 -3 -21 19 -16 26 7 27 2 6 -54 -3 -8 0 -10 10 -6 11 4 16 -2 19 -18 2
-13 7 -21 13 -18 13 7 7 30 -12 53 -9 9 -12 17 -7 17 16 0 34 -23 34 -42 0
-10 7 -18 15 -18 10 0 15 -10 15 -30 0 -16 5 -30 11 -30 11 0 7 -43 -8 -88 -4
-15 -3 -15 6 -2 6 8 15 31 21 50 8 31 13 35 42 34 97 -1 93 -57 -16 -196 l-50
-63 75 77 c69 71 75 80 71 113 -3 23 0 35 8 35 9 0 11 -10 7 -30 -6 -26 -4
-29 16 -27 19 2 23 -4 27 -38 4 -30 9 -40 23 -39 11 1 17 -5 17 -21 0 -30 -20
-86 -38 -107 -9 -11 -11 -18 -4 -18 6 0 17 9 26 21 13 20 14 19 11 -18 -3 -30
-13 -46 -47 -76 -55 -49 -58 -52 -96 -71 -18 -9 -32 -23 -32 -30 0 -14 -21
-26 -43 -26 -7 0 -6 4 3 10 22 14 7 12 -31 -5 l-34 -14 35 -2 c58 -2 84 2 101
17 21 19 30 18 22 -3 -10 -25 47 17 83 62 16 20 44 53 63 75 18 22 31 40 28
40 -3 0 6 28 21 63 21 51 26 78 26 149 0 84 1 86 18 66 16 -19 18 -19 18 -3 0
10 -8 25 -18 34 -25 22 -46 61 -32 61 5 0 18 -9 27 -20 10 -11 23 -20 30 -20
8 0 18 -11 23 -25 5 -14 14 -25 19 -25 5 0 17 -8 27 -17 15 -15 30 -20 74 -25
8 0 17 -5 20 -9 3 -4 17 -9 30 -11 33 -5 55 -19 42 -27 -6 -4 -2 -20 9 -41 11
-19 19 -29 19 -22 0 10 9 12 31 7 17 -4 39 -9 48 -10 9 -2 17 -4 19 -4 1 -1
-2 -10 -8 -21 -14 -27 -3 -25 22 3 13 14 21 18 24 10 3 -7 12 -9 20 -6 8 3 14
0 14 -7 0 -7 7 -10 15 -7 8 4 17 2 20 -3 4 -6 1 -10 -4 -10 -6 0 -11 -9 -11
-21 0 -11 -5 -29 -10 -40 -9 -17 -7 -19 16 -19 14 0 38 6 52 14 59 31 104 47
118 42 21 -8 54 7 94 43 19 17 40 31 45 31 6 0 18 9 28 20 22 26 92 28 106 3
5 -10 20 -53 35 -95 14 -42 42 -112 61 -154 37 -80 123 -210 132 -200 3 3 -1
16 -10 30 -14 21 -14 25 -1 30 8 3 17 -1 20 -9 10 -24 31 -17 44 15 7 17 16
30 21 30 5 0 9 7 9 16 0 9 9 18 20 21 15 4 20 14 20 40 0 44 20 123 31 123 5
0 9 -5 9 -11 0 -19 33 -5 36 16 6 38 25 42 146 28 62 -7 114 -17 116 -23 6
-16 102 -13 102 4 0 10 21 16 76 21 41 4 78 5 80 2 3 -3 20 -1 37 4 18 5 77
12 132 14 126 7 238 23 245 36 4 5 17 11 29 14 12 2 43 16 68 30 25 14 52 25
59 25 8 0 14 4 14 9 0 5 14 14 30 21 30 13 41 45 18 52 -9 3 -9 6 0 12 7 4 12
3 12 -3 0 -5 18 0 40 11 32 17 40 27 40 49 0 20 6 30 23 35 34 11 94 54 75 54
-9 0 -18 -4 -20 -8 -6 -15 -173 -62 -273 -77 -117 -18 -297 -20 -410 -5 -109
15 -275 70 -275 92 0 4 -11 8 -25 8 -15 0 -29 9 -37 23 -13 22 -15 28 -17 60
0 9 -7 17 -13 17 -10 0 -13 28 -15 100 -1 72 -6 113 -20 145 -10 25 -21 45
-25 45 -5 0 -8 6 -8 13 0 7 -5 18 -11 24 -27 27 -48 119 -49 211 0 54 -4 92
-10 92 -5 0 -10 13 -10 29 0 16 -6 31 -12 33 -10 4 -10 10 0 32 6 15 12 36 12
46 0 11 5 20 10 20 6 0 10 -4 10 -10 0 -5 7 -10 15 -10 11 0 15 -11 15 -40 0
-29 4 -40 15 -40 8 0 15 8 15 18 0 14 7 17 40 14 22 -2 40 -9 40 -16 0 -17 73
-38 82 -23 5 9 16 7 39 -7 27 -16 44 -18 113 -12 44 3 82 9 84 14 3 9 79 7
106 -4 11 -4 27 -2 40 6 14 9 49 13 103 11 71 -2 82 0 77 14 -3 8 -1 15 5 15
7 0 11 8 9 17 -2 12 7 19 30 24 18 4 41 13 50 22 9 8 44 27 77 43 33 16 62 31
65 34 3 3 25 14 50 25 58 25 90 54 90 82 0 18 5 22 23 20 15 -1 22 3 22 15 0
17 42 49 110 83 22 11 47 27 56 36 9 9 29 25 44 37 15 12 24 26 20 32 -9 15
-56 12 -90 -6 -44 -23 -97 -27 -168 -10 -34 8 -78 18 -97 21 -19 4 -51 11 -70
15 -187 44 -241 50 -275 27 -42 -27 -145 -47 -145 -28 0 4 -11 6 -24 4 -13 -3
-34 2 -47 10 -35 22 -110 19 -239 -9 -63 -14 -133 -25 -155 -25 -22 0 -55 -7
-74 -15 -59 -28 -114 -12 -177 52 -52 52 -57 54 -107 54 -45 0 -70 -8 -106
-36 -2 -2 11 -15 28 -29 17 -15 31 -35 31 -45 0 -21 16 -36 22 -20 4 14 78
-10 78 -26 0 -7 -8 -18 -17 -23 -15 -9 -13 -10 13 -11 27 0 32 -5 44 -40 7
-21 20 -41 29 -43 12 -4 11 -7 -6 -12 -13 -4 -23 -11 -23 -15 0 -14 29 -32 40
-25 7 4 9 -2 5 -18 -5 -20 -2 -27 14 -32 27 -8 27 -22 1 -30 -13 -4 -20 -15
-20 -31 0 -23 -3 -24 -61 -23 -41 1 -62 6 -66 15 -3 8 -11 14 -19 14 -8 0 -14
7 -14 15 0 8 -5 15 -10 15 -6 0 -16 11 -22 25 -6 14 -19 25 -30 25 -11 0 -18
7 -18 20 0 10 -11 36 -25 56 -14 20 -25 47 -25 60 0 15 -6 24 -15 24 -9 0 -15
9 -15 25 0 14 -4 25 -8 25 -5 0 -9 24 -10 52 0 29 -5 54 -10 56 -5 1 -7 13 -5
26 3 16 -3 27 -21 40 -14 9 -26 24 -26 34 0 10 -4 22 -9 27 -5 6 -19 49 -31
97 -15 64 -29 95 -50 119 -17 17 -27 35 -24 40 3 5 -2 12 -10 15 -8 3 -18 16
-22 27 -7 22 -7 22 -15 2 -6 -14 -7 -10 -3 13 4 25 2 32 -11 32 -9 0 -13 5
-10 10 4 6 -1 22 -10 37 -9 14 -19 35 -21 47 -2 11 -10 50 -18 85 -8 36 -13
68 -11 71 2 4 5 26 6 51 1 24 5 49 8 54 3 6 6 19 6 30 0 11 7 20 15 21 29 2
31 4 19 25 -9 18 -7 27 10 50 12 15 21 34 21 42 0 7 3 17 7 21 4 3 8 30 10 59
2 38 11 63 33 94 17 22 30 48 30 57 0 9 8 16 20 16 11 0 25 9 32 20 7 11 17
20 21 20 5 0 15 7 23 15 9 8 26 15 39 15 13 0 25 4 27 9 4 12 158 26 158 14 0
-6 36 -8 86 -6 54 3 90 0 99 -7 7 -6 34 -13 60 -16 34 -3 47 -1 51 11 9 23 24
18 24 -9 0 -13 5 -26 10 -28 7 -2 5 -19 -5 -48 -12 -35 -14 -68 -9 -155 3 -60
10 -111 15 -113 12 -5 11 -36 -2 -49 -10 -10 -23 -84 -22 -128 1 -11 -5 -54
-13 -96 -8 -42 -14 -94 -14 -115 0 -21 0 -48 0 -59 -1 -80 10 -175 24 -200 9
-16 16 -35 16 -42 0 -6 29 -26 65 -44 36 -18 67 -41 71 -51 6 -19 20 -24 26
-8 2 6 19 4 43 -5 40 -14 79 -11 103 8 19 15 230 13 266 -2 25 -10 30 -9 43 8
7 11 20 27 28 35 8 8 15 19 15 25 0 5 9 13 20 16 11 3 25 15 30 26 6 10 19 19
28 19 10 0 22 4 28 10 5 5 23 12 39 14 17 3 50 12 75 20 25 9 53 19 63 22 9 4
17 13 17 20 0 8 4 14 9 14 5 0 20 17 32 38 13 20 28 41 33 45 6 5 -1 6 -17 3
-16 -4 -36 -1 -50 8 -33 20 -86 27 -110 15 -20 -11 -125 -94 -137 -110 -13
-16 -49 -28 -55 -19 -3 5 -1 10 6 10 20 0 -13 32 -49 47 -18 7 -69 16 -113 20
-53 4 -79 10 -79 18 0 7 -11 16 -25 19 -14 4 -25 12 -25 19 0 7 -14 23 -30 37
-17 14 -42 44 -55 66 -14 23 -31 44 -38 47 -11 4 -14 29 -14 109 0 57 4 109
10 116 5 7 11 25 13 40 8 79 29 159 44 174 19 18 39 166 23 177 -7 5 -16 184
-14 256 5 113 -3 301 -14 350 -8 33 -15 74 -17 92 -1 17 -5 30 -10 27 -4 -2
-6 13 -5 35 1 37 -30 121 -45 121 -4 0 -5 7 -2 15 4 8 1 15 -5 15 -6 0 -11 9
-11 21 0 26 -18 59 -32 59 -6 0 -21 11 -34 25 -13 14 -32 25 -44 25 -15 0 -20
6 -20 24 0 20 -7 26 -32 31 -18 3 -62 12 -98 20 -36 8 -94 19 -130 26 -36 7
-68 14 -72 16 -4 2 2 19 14 39 14 23 26 33 36 29 8 -3 20 -1 26 3 6 5 32 14
57 21 32 9 51 21 63 42 9 16 21 29 27 29 5 0 28 17 52 38 62 54 124 102 135
102 6 0 12 7 16 15 3 8 17 20 31 25 14 5 25 16 25 23 0 8 12 20 28 28 15 8 32
19 37 25 6 5 33 28 60 49 28 22 53 44 57 50 4 5 8 6 8 1 0 -5 10 0 23 12 13
12 26 19 30 16 3 -3 13 9 23 27 17 33 69 89 83 89 5 0 20 23 36 51 15 29 35
59 44 68 9 10 34 39 56 66 22 27 48 57 58 67 19 20 37 24 37 8 0 -5 7 -7 16
-3 14 5 15 1 10 -28 l-7 -34 19 34 c14 24 21 30 26 20 3 -8 3 -3 -1 11 -10 38
-10 91 0 97 8 5 3 52 -9 96 -4 11 6 28 30 49 20 17 36 40 36 49 0 10 10 23 22
30 18 10 20 9 14 -6 -3 -10 -2 -23 4 -30 5 -6 11 -20 13 -31 2 -10 9 -32 16
-49 12 -29 11 -67 -4 -110 -6 -16 -3 -16 14 5 18 21 21 33 16 77 -4 29 -13 66
-22 83 -13 28 -13 34 1 64 20 42 20 47 1 40 -9 -4 -15 0 -15 10 0 9 6 16 13
16 26 0 59 47 59 85 0 29 2 34 14 24 8 -6 14 -20 14 -30 0 -27 17 -23 24 5 5
19 14 25 46 28 30 3 39 0 36 -9 -4 -10 9 -13 47 -14 29 -1 58 -1 65 0 7 1 15
-5 18 -13 8 -20 69 -31 99 -18 19 9 28 8 41 -5 13 -13 17 -14 24 -3 4 7 15 10
24 7 23 -9 32 -37 15 -47 -11 -7 -10 -10 3 -15 9 -4 22 -20 28 -36 7 -16 19
-29 26 -29 8 0 14 -7 14 -15 0 -8 4 -15 8 -15 5 0 16 -18 25 -40 9 -23 22 -40
31 -40 12 0 16 -10 16 -38 0 -26 6 -41 20 -50 11 -7 20 -21 20 -32 0 -11 11
-24 28 -32 15 -7 28 -23 30 -36 2 -15 10 -22 25 -22 14 0 47 -27 95 -77 70
-74 72 -78 50 -85 -17 -6 -15 -7 8 -3 29 4 32 1 37 -28 3 -18 10 -52 15 -77 7
-30 7 -46 0 -49 -5 -2 0 -10 11 -18 12 -8 19 -19 16 -24 -4 -5 -3 -15 2 -21 4
-7 9 -21 10 -31 4 -25 32 -75 33 -59 0 20 20 3 20 -17 0 -10 7 -24 15 -31 8
-7 15 -25 15 -40 0 -19 9 -35 25 -47 34 -24 65 -141 65 -245 0 -42 5 -80 10
-83 6 -3 10 -42 10 -86 0 -55 4 -78 12 -76 11 2 24 -18 49 -78 10 -23 13 -26
16 -12 3 12 12 4 29 -30 34 -66 44 -113 50 -223 2 -52 10 -120 18 -150 10 -41
11 -85 5 -170 -4 -63 -8 -126 -8 -140 -1 -20 -3 -22 -11 -10 -8 11 -9 9 -5
-11 4 -15 -6 -70 -24 -135 -17 -60 -31 -123 -31 -141 0 -18 -6 -36 -14 -40 -7
-5 -16 -35 -20 -73 -3 -36 -11 -94 -16 -130 -41 -274 -60 -542 -38 -567 7 -9
7 -13 0 -13 -17 0 -29 -64 -36 -179 -3 -63 -10 -107 -17 -112 -7 -4 -11 -29
-11 -57 1 -28 -3 -54 -8 -57 -6 -4 -8 -10 -6 -14 7 -11 -36 -143 -57 -174 -19
-30 -39 -77 -32 -77 2 0 12 14 20 31 9 17 19 29 21 26 6 -6 -38 -87 -47 -87
-4 0 -10 -11 -13 -24 -3 -13 -24 -53 -46 -90 -22 -36 -47 -85 -57 -108 -9 -24
-20 -47 -25 -53 -4 -5 -8 -18 -8 -29 0 -11 -7 -27 -15 -36 -8 -8 -21 -40 -28
-71 -16 -60 -6 -129 22 -163 20 -24 32 -107 18 -124 -8 -11 -7 -16 6 -23 20
-12 21 -26 5 -96 -12 -49 -27 -71 -29 -40 0 6 -5 1 -10 -12 -9 -23 -10 -24
-25 -5 -14 17 -15 17 -10 1 3 -10 -3 -44 -13 -75 -43 -130 -19 -283 54 -340
14 -11 25 -26 25 -34 0 -21 43 -58 67 -58 12 0 23 -4 25 -8 2 -4 18 -19 37
-32 19 -13 31 -19 27 -12 -5 8 -2 10 9 6 10 -4 15 -14 12 -26 -5 -16 -3 -17 9
-7 11 9 14 8 14 -5 0 -26 13 -18 48 30 43 59 73 126 75 170 2 32 4 35 27 29
62 -15 137 -17 142 -4 4 11 -7 14 -52 12 -65 -2 -119 21 -177 76 -37 35 -38
39 -18 65 11 15 17 17 29 7 11 -9 14 -8 12 6 0 10 7 19 19 21 11 2 45 19 76
38 31 19 59 34 63 34 9 0 100 65 163 116 68 55 141 133 149 159 4 11 12 27 19
35 7 8 27 48 44 89 17 41 43 85 57 98 29 27 36 29 28 8 -4 -10 0 -15 15 -15
15 0 23 -10 31 -40 12 -46 11 -180 -1 -180 -5 0 -9 -7 -9 -16 0 -8 5 -12 10
-9 14 9 12 -13 -4 -60 -8 -22 -29 -53 -48 -68 l-33 -29 31 15 c44 22 49 32 74
132 17 72 20 105 15 165 -4 41 -11 85 -16 97 -5 13 -5 23 -1 23 8 0 42 -79 42
-98 0 -6 5 -12 11 -12 7 0 5 -10 -5 -25 -9 -14 -12 -25 -6 -25 5 0 10 -8 10
-17 1 -17 2 -17 14 0 11 14 16 15 22 6 4 -7 2 -15 -4 -17 -7 -2 -12 -16 -12
-32 0 -16 -5 -41 -11 -57 -6 -15 -11 -54 -10 -86 2 -81 -16 -227 -30 -243 -17
-20 -110 -79 -149 -94 -44 -17 -65 -35 -30 -26 23 7 24 6 7 -7 -12 -10 -31
-13 -55 -10 -23 3 -53 -1 -76 -11 -25 -10 -51 -14 -72 -10 -18 3 -39 2 -46 -2
-13 -9 -18 -10 -51 -12 -10 -1 -15 -6 -12 -12 17 -28 245 8 347 55 32 14 66
27 77 28 11 0 18 4 15 8 -2 4 10 18 27 30 l32 23 -6 -70 c-4 -38 -7 -82 -7
-97 0 -18 -4 -26 -11 -21 -8 5 -10 -3 -5 -27 4 -19 7 -47 7 -63 0 -15 6 -35
14 -43 16 -15 18 -11 16 23 -2 22 31 44 37 25 2 -7 9 -5 18 3 16 17 19 30 3
21 -16 -11 -59 4 -59 20 0 8 5 15 10 15 6 0 10 10 10 23 0 14 40 77 101 158
95 126 132 171 115 142 -4 -7 -5 -13 -2 -13 2 0 15 17 27 38 13 20 30 43 39
50 8 8 9 11 3 7 -18 -9 -16 10 2 25 12 10 15 10 15 -1 0 -11 2 -11 10 1 5 8 6
17 2 20 -10 7 -10 50 0 50 4 0 8 -6 8 -12 0 -7 9 5 21 26 11 21 18 45 15 52
-6 16 3 44 14 44 4 0 5 -11 3 -24 -3 -13 1 -27 8 -31 8 -6 10 -4 4 6 -6 11 -4
10 8 -1 8 -8 20 -35 26 -60 11 -45 11 -45 6 -5 -2 22 -8 55 -11 74 -5 25 -4
32 4 27 8 -5 12 1 13 16 3 50 7 65 22 89 9 13 18 37 21 53 3 16 10 33 17 36 8
5 8 13 1 26 -7 14 -6 23 4 32 11 10 16 7 29 -18 25 -49 26 -34 1 23 -19 43
-22 62 -16 107 4 30 13 69 20 85 15 33 136 221 157 245 24 27 73 105 73 117 0
6 16 45 35 86 47 100 65 194 65 335 0 140 -20 226 -79 345 -49 98 -96 157
-218 272 -51 48 -93 93 -93 100 0 7 -4 15 -9 17 -5 2 -12 18 -16 37 -5 25 -4
32 5 26 8 -5 10 -2 6 11 -5 19 -1 49 29 214 8 47 17 92 18 102 2 9 9 23 16 32
8 9 16 40 19 69 2 29 10 71 18 95 18 55 18 56 -6 32 -11 -11 -20 -27 -20 -36
0 -8 -4 -12 -10 -9 -14 8 -13 85 1 85 6 0 9 -7 6 -15 -4 -8 -2 -17 3 -20 14
-8 22 32 15 74 -12 70 -28 264 -28 336 1 17 -5 34 -11 38 -8 6 -8 10 2 14 6 2
12 11 12 19 0 9 -5 12 -12 8 -7 -5 -8 -3 -4 5 11 18 15 111 5 117 -5 3 -8 -3
-7 -13 5 -61 -6 -54 -13 7 -4 41 -4 76 0 78 6 2 3 34 -15 157 -8 56 -18 180
-18 238 -1 56 -10 74 -20 40 -2 -10 -4 -2 -3 17 1 22 7 34 15 33 15 -4 16 23
2 32 -6 4 -8 22 -4 43 4 26 3 34 -4 27 -10 -9 -19 -57 -21 -107 -1 -29 -31
-21 -31 8 0 14 4 23 10 19 15 -9 12 10 -7 44 -15 26 -16 33 -4 40 8 5 9 11 3
15 -5 3 -8 30 -5 61 3 45 1 55 -11 55 -13 0 -15 8 -10 36 4 25 2 34 -5 29 -6
-3 -11 -2 -11 4 0 6 -20 35 -45 65 -40 50 -61 97 -36 81 6 -3 15 4 21 15 11
20 -3 30 -15 10 -10 -16 -45 -12 -45 6 0 11 -6 14 -20 9 -12 -4 -20 -2 -20 5
0 6 5 8 10 5 6 -3 10 1 10 10 0 8 11 20 24 26 21 10 23 15 14 35 -14 29 -32
32 -23 3 4 -13 0 -27 -11 -40 -21 -23 -34 -24 -34 -3 0 8 -4 13 -8 10 -13 -8
-34 53 -28 79 4 14 13 25 21 25 22 0 18 18 -5 25 -10 3 -31 20 -45 37 -23 27
-26 39 -23 84 2 31 -1 52 -7 51 -5 -1 -11 12 -12 28 -1 17 -5 52 -9 79 -5 36
-4 47 4 42 7 -4 12 -2 12 3 0 6 -4 11 -10 11 -5 0 -10 7 -10 15 0 8 5 15 10
15 6 0 10 17 10 38 l1 37 14 -25 c20 -35 18 -24 -5 38 -22 57 -25 99 -10 122
8 13 11 11 16 -7 4 -13 13 -23 20 -23 11 0 9 8 -7 29 -17 24 -21 39 -17 75 3
25 2 46 -3 46 -5 0 -9 -12 -9 -27 -1 -40 -16 -9 -23 45 -5 44 7 58 19 20 l7
-23 9 24 c5 14 5 27 0 30 -5 3 -15 29 -22 56 -7 28 -22 67 -33 88 -14 27 -17
47 -12 73 5 29 4 36 -8 31 -20 -7 -68 93 -55 116 6 11 5 17 -1 17 -14 0 -44
69 -66 148 -11 37 -23 62 -31 62 -8 0 -15 10 -15 23 -1 17 -2 18 -6 4 -3 -10
0 -23 5 -30 14 -17 42 -114 35 -121 -3 -3 -17 4 -31 14 -13 11 -29 20 -35 20
-5 0 -19 10 -31 23 -12 12 -43 41 -69 65 -44 40 -58 62 -39 62 9 0 32 -19 95
-79 25 -24 37 -30 37 -19 0 19 -47 71 -59 64 -5 -3 -12 1 -15 10 -4 11 -2 15
8 11 10 -4 13 -1 10 8 -3 8 -12 11 -19 9 -8 -4 -17 7 -25 30 -6 19 -18 40 -26
46 -19 17 -18 -4 2 -24 14 -15 14 -16 -4 -16 -11 0 -27 11 -36 25 -9 14 -23
25 -30 25 -15 0 -29 27 -21 40 3 4 -2 10 -10 14 -11 4 -13 11 -5 31 9 25 -3
37 -13 13 -3 -7 -6 -3 -6 8 -1 22 -40 78 -41 59 0 -6 5 -16 12 -23 6 -6 8 -15
3 -19 -4 -5 -10 -2 -12 5 -3 6 -12 12 -20 12 -13 0 -13 -3 -3 -15 7 -8 18 -15
25 -15 17 0 14 -48 -2 -55 -7 -2 -13 3 -13 12 0 9 -23 39 -52 66 -54 51 -100
64 -120 36 -8 -11 -9 -10 -4 4 3 10 6 20 6 23 0 2 7 1 15 -2 11 -4 15 0 15 16
0 18 -3 20 -14 11 -11 -9 -17 -8 -28 2 -8 8 -24 18 -37 22 -17 5 -21 12 -17
27 3 15 -3 27 -20 40 -13 11 -24 30 -24 43 0 13 -7 25 -18 27 -15 4 -17 -1
-15 -31 2 -20 0 -29 -4 -21 -3 8 -9 17 -13 20 -4 3 -15 26 -23 51 -12 36 -14
55 -6 84 8 26 7 41 0 48 -8 8 -11 4 -11 -14 0 -14 -2 -28 -5 -31 -8 -7 -65 47
-65 61 0 6 -9 11 -20 11 -11 0 -20 5 -20 11 0 5 4 7 10 4 6 -3 7 1 4 9 -7 18
-25 4 -37 -27 -4 -10 -11 -15 -17 -12 -5 3 -10 -3 -10 -14 0 -11 -4 -23 -10
-26 -6 -4 -7 1 -3 11 5 13 2 15 -15 9 -26 -8 -28 3 -4 22 12 10 14 16 4 19 -6
3 -10 10 -6 15 9 15 -10 9 -33 -10 -13 -11 -23 -24 -23 -30 0 -6 -7 -8 -16 -4
-8 3 -13 12 -10 20 3 7 -1 16 -9 19 -9 4 -16 20 -16 38 -1 17 -3 23 -6 13 -3
-12 -11 -15 -29 -11 -14 4 -24 2 -24 -5 0 -6 -4 -11 -10 -11 -5 0 -10 7 -10
15 0 18 -26 20 -33 3 -3 -8 -6 -6 -6 4 -1 10 -10 22 -21 28 -11 6 -20 18 -20
28 0 15 -2 15 -10 2 -8 -13 -13 -13 -30 -2 -18 11 -21 11 -18 -4 5 -30 -18
-25 -53 11 -21 21 -44 35 -59 35 -14 0 -38 7 -54 15 -23 12 -79 15 -320 14
-160 -1 -329 -5 -376 -10z m1293 -311 c-2 -5 -11 -8 -19 -8 -18 0 -19 56 -1
63 12 4 28 -40 20 -55z m-102 9 c-10 -9 -11 -8 -5 6 3 10 9 15 12 12 3 -3 0
-11 -7 -18z m57 -14 c-2 -14 -8 -28 -14 -30 -7 -2 -9 8 -6 27 5 37 25 40 20 3z
m52 -17 c0 -3 -4 -8 -10 -11 -5 -3 -10 -1 -10 4 0 6 5 11 10 11 6 0 10 -2 10
-4z m37 -28 c-3 -8 -6 -5 -6 6 -1 11 2 17 5 13 3 -3 4 -12 1 -19z m-37 -22 c0
-2 -7 -7 -16 -10 -8 -3 -12 -2 -9 4 6 10 25 14 25 6z m-3420 -606 c0 -5 -5
-10 -11 -10 -5 0 -7 5 -4 10 3 6 8 10 11 10 2 0 4 -4 4 -10z m4257 -82 c-3 -8
-6 -5 -6 6 -1 11 2 17 5 13 3 -3 4 -12 1 -19z m-20 -85 c-8 -7 -47 35 -47 50
0 5 12 -2 27 -17 14 -14 23 -29 20 -33z m-4197 33 c0 -2 -8 -10 -17 -17 -16
-13 -17 -12 -4 4 13 16 21 21 21 13z m-60 -56 c-6 -11 -13 -20 -16 -20 -2 0 0
9 6 20 6 11 13 20 16 20 2 0 0 -9 -6 -20z m4252 3 c10 -9 18 -23 18 -31 0 -12
-6 -10 -25 8 -38 35 -31 58 7 23z m-4319 -58 c-3 -9 -8 -14 -10 -11 -3 3 -2 9
2 15 9 16 15 13 8 -4z m-41 -88 c-12 -13 -22 -28 -22 -33 0 -6 -11 -25 -25
-44 -14 -19 -25 -31 -25 -28 0 11 63 123 74 130 20 13 19 -2 -2 -25z m4437 11
c5 -13 7 -25 4 -28 -5 -6 -33 30 -33 42 0 17 21 7 29 -14z m41 -83 c0 -8 -4
-15 -9 -15 -5 0 -11 7 -15 15 -3 9 0 15 9 15 8 0 15 -7 15 -15z m27 -47 c-3
-7 -5 -2 -5 12 0 14 2 19 5 13 2 -7 2 -19 0 -25z m-4675 -20 c-7 -7 -12 -8
-12 -2 0 14 12 26 19 19 2 -3 -1 -11 -7 -17z m4691 -56 c4 -21 3 -31 -3 -27
-6 3 -10 20 -10 37 0 38 5 34 13 -10z m-60 -2 c3 -14 1 -20 -6 -17 -7 2 -14
14 -15 26 -4 28 13 20 21 -9z m37 -75 c0 -5 -5 -3 -10 5 -5 8 -10 20 -10 25 0
6 5 3 10 -5 5 -8 10 -19 10 -25z m40 0 c0 -19 -4 -35 -8 -35 -5 0 -8 10 -6 23
1 12 3 28 3 35 2 28 11 9 11 -23z m-40 -67 c0 -19 -2 -20 -10 -8 -8 12 -10 9
-10 -13 0 -16 -4 -26 -10 -22 -5 3 -10 19 -10 36 0 22 5 29 20 29 14 0 20 -7
20 -22z m40 -35 c0 -16 -7 -48 -16 -72 -8 -24 -13 -50 -10 -58 4 -8 1 -11 -5
-7 -7 4 -9 21 -5 43 3 20 9 55 12 79 7 47 24 57 24 15z m-1913 -25 c-3 -8 -6
-5 -6 6 -1 11 2 17 5 13 3 -3 4 -12 1 -19z m1865 -20 c-8 -8 -9 -4 -5 13 4 13
8 18 11 10 2 -7 -1 -18 -6 -23z m-1985 -20 c-3 -8 -6 -5 -6 6 -1 11 2 17 5 13
3 -3 4 -12 1 -19z m61 -6 c4 -25 -45 -79 -59 -65 -11 11 30 95 45 90 6 -2 12
-13 14 -25z m1909 -24 c-3 -7 -5 -2 -5 12 0 14 2 19 5 13 2 -7 2 -19 0 -25z
m73 -33 c-5 -27 -9 -69 -9 -93 -1 -29 -5 -41 -12 -36 -14 8 -4 135 12 166 16
29 18 19 9 -37z m-2110 -20 c0 33 2 37 11 22 6 -10 8 -21 5 -24 -3 -3 -1 -14
4 -24 8 -14 6 -20 -7 -28 -10 -5 -16 -12 -14 -16 7 -12 -22 -65 -35 -65 -17 0
-18 24 -2 109 l12 66 12 -40 12 -40 2 40z m2067 -42 c-3 -10 -5 -4 -5 12 0 17
2 24 5 18 2 -7 2 -21 0 -30z m-2126 -11 c-6 -12 -12 -33 -12 -49 -2 -25 -2
-25 -6 -5 -5 23 15 87 24 78 3 -2 0 -13 -6 -24z m2150 -86 c15 -32 3 -96 -18
-96 -10 0 -13 5 -8 18 18 43 18 52 -1 45 -14 -5 -16 -3 -11 11 4 10 7 24 7 32
0 22 19 16 31 -10z m29 -110 c8 -11 10 -17 3 -13 -6 4 -14 1 -16 -5 -3 -7 -6
0 -6 16 -1 16 0 27 2 25 1 -2 9 -13 17 -23z m-31 -116 c0 -22 -1 -23 -10 -7
-6 10 -12 35 -14 55 l-4 37 14 -30 c8 -16 14 -41 14 -55z m-2158 7 c-8 -8 -11
-7 -11 4 0 9 3 19 7 23 4 4 9 2 11 -4 3 -7 -1 -17 -7 -23z m2249 -53 c0 -2
-11 -4 -24 -4 -18 0 -27 8 -35 31 -18 51 -13 54 24 15 19 -21 35 -39 35 -42z
m-70 6 c0 -5 -4 -10 -10 -10 -5 0 -10 5 -10 10 0 6 5 10 10 10 6 0 10 -4 10
-10z m63 -180 c3 -11 1 -20 -4 -20 -5 0 -9 9 -9 20 0 11 2 20 4 20 2 0 6 -9 9
-20z m147 -125 c0 -14 -4 -25 -9 -25 -12 0 -19 21 -13 38 8 21 22 13 22 -13z
m-5279 -137 c-17 -24 -44 -56 -60 -72 -17 -16 -33 -36 -36 -45 -6 -19 -45 -46
-45 -31 0 6 24 36 53 68 29 31 65 74 81 95 39 51 45 39 7 -15z m-81 25 c-14
-25 -123 -142 -113 -121 8 16 115 138 121 138 1 0 -2 -8 -8 -17z m42 -155 c-7
-7 -12 -8 -12 -2 0 14 12 26 19 19 2 -3 -1 -11 -7 -17z m-172 8 c0 -3 -4 -8
-10 -11 -5 -3 -10 -1 -10 4 0 6 5 11 10 11 6 0 10 -2 10 -4z m124 -37 c-10
-12 -18 -29 -16 -39 2 -10 -2 -21 -8 -25 -5 -3 -10 -14 -10 -23 0 -15 2 -15
10 -2 8 13 10 13 10 -1 0 -27 -22 -83 -37 -95 -7 -7 -13 -16 -12 -20 4 -16
-55 -124 -67 -124 -7 0 -14 -10 -18 -23 -7 -28 -39 -67 -55 -67 -13 0 -51 -31
-51 -42 0 -4 7 -5 16 -1 25 9 14 -9 -35 -62 -45 -49 -50 -51 -181 -79 -59 -12
-94 -10 -85 5 8 13 -87 0 -104 -14 -12 -10 -14 -9 -8 6 4 10 7 21 7 23 0 2 6
4 13 4 7 0 19 16 26 36 15 42 179 217 194 207 5 -3 7 -1 4 4 -4 6 21 35 56 64
69 59 176 159 216 202 31 33 37 34 44 5 4 -15 -1 -30 -16 -46 -15 -16 -17 -23
-7 -20 11 2 16 -7 18 -36 3 -35 4 -37 17 -20 8 11 14 24 15 29 0 6 -5 3 -11
-5 -7 -11 -8 -6 -3 19 3 19 13 41 20 49 16 15 19 36 4 27 -16 -10 -12 11 5 25
8 7 15 18 15 25 0 13 42 46 49 39 2 -2 -4 -13 -15 -25z m68 -34 c-2 -14 -8
-25 -12 -25 -5 0 -11 -13 -15 -30 -4 -16 -10 -30 -13 -30 -4 0 -15 -20 -25
-45 -11 -25 -23 -45 -28 -45 -5 0 -1 17 10 38 20 39 21 43 21 68 0 8 4 12 10
9 5 -3 12 7 15 22 10 45 24 75 34 69 4 -3 6 -17 3 -31z m-141 -22 c-10 -17
-10 -16 -11 3 0 23 13 41 18 25 2 -6 -1 -18 -7 -28z m177 -138 c-6 -14 -13
-23 -15 -21 -5 5 15 46 22 46 3 0 -1 -11 -7 -25z m-38 -30 c0 -8 -4 -15 -10
-15 -5 0 -7 7 -4 15 4 8 8 15 10 15 2 0 4 -7 4 -15z m1830 -25 c0 -5 -5 -10
-11 -10 -5 0 -7 5 -4 10 3 6 8 10 11 10 2 0 4 -4 4 -10z m-1830 -20 c0 -5 -11
-17 -25 -26 -14 -9 -25 -22 -25 -29 0 -7 -17 -25 -37 -41 l-38 -28 27 32 c15
17 29 41 33 52 3 11 17 23 31 26 13 3 21 10 18 15 -3 5 0 9 5 9 6 0 11 -4 11
-10z m0 -59 c-5 -11 -16 -25 -23 -33 -7 -7 -20 -26 -30 -41 -10 -16 -21 -26
-24 -23 -4 3 1 14 10 24 10 10 17 23 17 29 0 11 45 63 55 63 3 0 1 -9 -5 -19z
m-620 -86 c-24 -25 -46 -45 -49 -45 -3 0 15 20 39 45 24 25 46 45 49 45 3 0
-15 -20 -39 -45z m530 10 c-7 -8 -17 -15 -23 -15 -5 0 -2 9 8 20 21 23 35 19
15 -5z m-8 -47 c-7 -7 -12 -8 -12 -2 0 14 12 26 19 19 2 -3 -1 -11 -7 -17z
m-144 -42 c-24 -37 -44 -48 -34 -18 7 20 -11 -1 -47 -57 -12 -19 -28 -36 -34
-39 -23 -7 -14 20 16 49 17 15 35 38 41 49 6 12 18 19 25 16 7 -2 21 7 30 20
9 14 19 24 22 21 2 -3 -6 -21 -19 -41z m94 22 c-7 -7 -12 -8 -12 -2 0 14 12
26 19 19 2 -3 -1 -11 -7 -17z m-127 -117 c-3 -6 -11 -11 -17 -11 -6 0 -6 6 2
15 14 17 26 13 15 -4z m-300 -71 c7 -6 15 -7 18 -3 4 3 7 1 7 -5 0 -15 -5 -15
-30 1 -17 10 -22 9 -29 -2 -5 -8 -18 -12 -29 -9 -13 4 -27 -1 -38 -13 -16 -18
-16 -19 19 -19 20 0 39 5 42 10 6 10 45 14 45 5 0 -16 -43 -44 -67 -44 -15 0
-52 -5 -81 -12 -29 -6 -55 -9 -58 -6 -7 7 16 77 33 97 9 12 29 15 84 13 40 -2
78 -8 84 -13z m-227 -25 c-6 -14 -13 -23 -15 -21 -5 5 15 46 22 46 3 0 -1 -11
-7 -25z m297 -5 c3 -5 1 -10 -4 -10 -6 0 -11 5 -11 10 0 6 2 10 4 10 3 0 8 -4
11 -10z m-30 -30 c3 -5 1 -10 -4 -10 -6 0 -11 5 -11 10 0 6 2 10 4 10 3 0 8
-4 11 -10z m2268 -130 c-3 -11 -9 -20 -14 -20 -11 0 -11 3 -3 24 9 23 23 20
17 -4z m98 10 c23 -13 25 -36 3 -44 -28 -11 -34 -7 -34 24 0 33 3 35 31 20z
m-1921 -4 c0 -2 -8 -10 -17 -17 -16 -13 -17 -12 -4 4 13 16 21 21 21 13z
m-125 -56 c-3 -5 -11 -10 -16 -10 -6 0 -7 5 -4 10 3 6 11 10 16 10 6 0 7 -4 4
-10z m-34 -47 c-12 -20 -14 -14 -5 12 4 9 9 14 11 11 3 -2 0 -13 -6 -23z m-30
-5 c-6 -7 -20 -24 -32 -38 -23 -28 -15 -9 14 33 10 16 21 26 24 23 3 -2 0 -11
-6 -18z m2296 0 c6 -7 13 -25 17 -40 6 -27 5 -28 -39 -28 -25 0 -45 3 -45 6 0
12 42 74 50 74 4 0 12 -6 17 -12z m-2352 -28 c-10 -11 -20 -18 -23 -15 -7 6
18 35 31 35 5 0 2 -9 -8 -20z m-46 -46 c-10 -23 -13 -25 -16 -11 -3 10 1 25 8
33 17 21 21 11 8 -22z m-43 -59 c-19 -29 -21 -40 -3 -29 7 5 2 -1 -12 -13 -14
-12 -27 -21 -29 -19 -2 2 9 28 24 58 15 29 29 47 31 40 3 -7 -2 -24 -11 -37z
m-22 -90 c-4 -8 -10 -15 -15 -15 -5 0 -9 -6 -9 -14 0 -8 -5 -18 -12 -22 -6 -4
-9 -3 -7 2 3 5 11 21 19 37 14 28 34 38 24 12z m-12 -88 c-6 -12 -13 -31 -15
-42 -4 -15 -5 -13 -6 7 -1 31 21 87 27 68 3 -7 0 -22 -6 -33z m5981 -71 c-3
-17 -14 -50 -25 -74 -24 -50 -17 -69 7 -22 19 37 31 33 19 -7 -4 -15 -9 -37
-10 -48 -1 -11 -7 -40 -14 -65 -6 -24 -9 -53 -7 -62 3 -10 1 -18 -4 -18 -5 0
-9 -13 -9 -29 0 -32 -20 -54 -21 -24 0 14 -3 12 -10 -6 -5 -14 -8 -30 -5 -38
3 -7 1 -15 -4 -18 -9 -5 -15 15 -11 38 0 4 -4 7 -10 7 -7 0 -9 -11 -5 -30 7
-37 -11 -40 -24 -4 -13 33 -13 47 0 39 6 -4 10 10 10 34 0 23 5 41 10 41 6 0
10 11 10 24 0 13 12 49 26 80 14 31 23 63 20 71 -3 8 -1 15 3 15 13 0 31 57
31 95 0 21 5 32 14 32 11 0 13 -8 9 -31z m28 -62 c-5 -16 -10 -21 -10 -12 -1
18 10 51 15 45 2 -1 -1 -16 -5 -33z m-3981 6 c0 -5 -4 -10 -10 -10 -5 0 -10 5
-10 10 0 6 5 10 10 10 6 0 10 -4 10 -10z m387 4 c-3 -3 -12 -4 -19 -1 -8 3 -5
6 6 6 11 1 17 -2 13 -5z m-2648 -106 c-9 -16 -14 -19 -17 -9 -2 7 2 17 9 22
20 13 21 11 8 -13z m2 -81 c-8 -8 -11 -2 -11 19 0 40 14 54 18 19 2 -15 -1
-32 -7 -38z m190 -54 c-12 -20 -14 -14 -5 12 4 9 9 14 11 11 3 -2 0 -13 -6
-23z m5 -140 c1 -54 5 -124 9 -155 10 -80 -10 -149 -22 -75 -9 54 -8 82 5 80
6 -2 12 3 12 11 0 8 -6 16 -12 19 -20 6 -16 217 4 217 2 0 4 -44 4 -97z m-36
-108 c0 -8 -2 -15 -4 -15 -2 0 -6 7 -10 15 -3 8 -1 15 4 15 6 0 10 -7 10 -15z
m6025 -85 c7 0 48 -34 91 -75 44 -42 80 -75 82 -75 7 2 72 -89 72 -100 0 -6 5
-8 10 -5 6 4 10 -5 10 -19 0 -15 6 -26 14 -26 8 0 19 -28 30 -82 9 -46 19 -93
21 -105 3 -12 13 -24 24 -28 33 -10 35 -136 2 -230 -6 -16 -12 -55 -14 -85 -3
-30 -9 -67 -16 -82 -6 -16 -8 -28 -6 -28 19 0 -129 -247 -207 -345 -27 -32
-54 -72 -61 -87 -16 -37 -23 -35 -31 7 -4 20 -11 33 -17 30 -5 -4 -9 -2 -9 4
0 5 -3 18 -6 28 -5 15 -4 15 5 3 16 -23 13 0 -9 60 -11 30 -20 67 -20 82 0 16
-4 28 -10 28 -5 0 -10 9 -10 21 0 15 4 19 16 15 13 -5 15 -1 12 24 -3 23 -1
30 9 26 9 -4 13 4 13 28 0 19 9 63 20 98 23 72 24 82 10 73 -5 -3 -10 -17 -10
-31 0 -13 -4 -24 -10 -24 -5 0 -10 -9 -10 -19 0 -11 -4 -22 -9 -26 -12 -7 -31
27 -30 52 0 16 1 16 8 -2 6 -14 13 0 29 60 12 44 23 98 25 120 3 22 2 31 0 20
-9 -37 -23 -40 -22 -4 1 19 -7 61 -16 94 -32 114 -57 365 -36 365 6 0 11 -7
11 -15 0 -8 5 -15 10 -15 6 0 10 -7 10 -17 0 -9 3 -13 6 -10 4 4 -3 29 -15 57
-13 30 -19 59 -15 74 l6 24 24 -25 c13 -13 26 -36 29 -51 2 -15 9 -28 15 -30
5 -2 10 -9 10 -17 0 -7 7 -19 16 -26 15 -12 16 -11 9 11 -4 14 -13 32 -20 40
-12 15 -35 75 -35 92 0 5 4 7 9 4 5 -4 7 3 4 14 -3 11 -10 20 -15 20 -5 0 -6
5 -3 10 5 8 11 8 19 1 7 -6 16 -8 19 -5 3 4 18 -7 32 -22 l27 -29 -20 31 c-12
16 -39 52 -61 79 -23 27 -41 54 -40 60 0 5 3 4 6 -2 2 -7 11 -13 18 -13z m-25
-69 c0 -5 3 -18 7 -28 6 -16 5 -16 -10 -4 -19 15 -23 41 -7 41 6 0 10 -4 10
-9z m-5963 -58 c-3 -10 -5 -4 -5 12 0 17 2 24 5 18 2 -7 2 -21 0 -30z m40 -65
c-3 -8 -6 -5 -6 6 -1 11 2 17 5 13 3 -3 4 -12 1 -19z m-10 -150 c-3 -8 -6 -5
-6 6 -1 11 2 17 5 13 3 -3 4 -12 1 -19z m223 -164 c0 -8 -5 -12 -10 -9 -6 4
-8 11 -5 16 9 14 15 11 15 -7z m-60 -43 c0 -6 -4 -13 -10 -16 -5 -3 -10 1 -10
9 0 9 5 16 10 16 6 0 10 -4 10 -9z m-44 -38 c-10 -10 -19 5 -10 18 6 11 8 11
12 0 2 -7 1 -15 -2 -18z m44 -29 c0 -8 -4 -14 -10 -14 -5 0 -10 9 -10 21 0 11
5 17 10 14 6 -3 10 -13 10 -21z m-117 -19 c-3 -9 -8 -14 -10 -11 -3 3 -2 9 2
15 9 16 15 13 8 -4z m72 5 c3 -5 1 -10 -4 -10 -6 0 -11 5 -11 10 0 6 2 10 4
10 3 0 8 -4 11 -10z m-20 -40 c-3 -5 -14 -10 -23 -10 -15 0 -15 2 -2 10 20 13
33 13 25 0z m-26 -72 c-1 -31 -1 -31 -8 -8 -5 14 -6 28 -4 33 9 15 13 6 12
-25z m34 7 c-3 -8 -9 -15 -14 -15 -10 0 -12 24 -3 33 11 11 24 -3 17 -18z
m-90 -55 c-3 -12 -8 -19 -11 -16 -5 6 5 36 12 36 2 0 2 -9 -1 -20z m95 0 c-7
-11 -20 -20 -28 -20 -11 1 -8 6 9 20 30 25 34 25 19 0z m6209 -12 c-3 -7 -5
-2 -5 12 0 14 2 19 5 13 2 -7 2 -19 0 -25z m-6187 -3 c0 -8 -4 -15 -10 -15 -5
0 -7 7 -4 15 4 8 8 15 10 15 2 0 4 -7 4 -15z m-60 -25 c0 -5 -4 -10 -10 -10
-5 0 -10 5 -10 10 0 6 5 10 10 10 6 0 10 -4 10 -10z m2160 -21 c0 -5 -4 -9
-10 -9 -5 0 -10 7 -10 16 0 8 5 12 10 9 6 -3 10 -10 10 -16z m-2100 -19 c0 -5
-5 -10 -11 -10 -5 0 -7 5 -4 10 3 6 8 10 11 10 2 0 4 -4 4 -10z m5769 -103
c-9 -16 -9 -22 0 -25 6 -2 11 -8 11 -13 0 -6 -4 -7 -10 -4 -5 3 -10 -3 -10
-14 0 -37 -19 -32 -30 9 -6 23 -14 49 -16 58 -4 11 2 8 16 -8 l22 -25 -6 31
c-6 39 14 65 26 33 5 -12 3 -30 -3 -42z m-5802 2 c-8 -21 -13 -26 -15 -15 -2
10 2 23 8 31 18 22 20 18 7 -16z m24 -16 c-8 -15 -10 -15 -11 -2 0 17 10 32
18 25 2 -3 -1 -13 -7 -23z m5801 5 c-7 -7 -12 -8 -12 -2 0 14 12 26 19 19 2
-3 -1 -11 -7 -17z m-5769 -8 c-5 -19 -23 -39 -23 -25 0 9 20 45 24 45 2 0 2
-9 -1 -20z m-43 -40 c0 -5 -4 -10 -10 -10 -5 0 -10 5 -10 10 0 6 5 10 10 10 6
0 10 -4 10 -10z m5710 -74 c0 -6 -7 -1 -15 10 -8 10 -14 26 -14 34 0 16 28
-28 29 -44z m94 38 c3 -8 2 -12 -4 -9 -6 3 -10 10 -10 16 0 14 7 11 14 -7z
m-2689 -34 c-4 -11 -2 -20 4 -20 6 0 11 6 11 13 0 25 20 -18 20 -44 0 -18 -6
-28 -20 -32 -11 -3 -20 -1 -20 4 0 5 -11 9 -25 9 -31 0 -34 25 -4 33 12 3 19
12 17 19 -3 7 0 18 6 25 16 18 18 16 11 -7z m-48 -22 c-3 -8 -6 -5 -6 6 -1 11
2 17 5 13 3 -3 4 -12 1 -19z m115 10 c-9 -9 -15 -9 -24 0 -9 9 -7 12 12 12 19
0 21 -3 12 -12z m-252 -45 c0 -45 -5 -40 -13 10 -3 22 -2 35 4 32 5 -4 9 -22
9 -42z m2730 3 c0 -7 -9 -12 -20 -12 -15 0 -20 7 -20 30 0 28 0 29 20 11 11
-10 20 -23 20 -29z m-2620 4 c0 -5 -7 -10 -16 -10 -8 0 -12 5 -9 10 3 6 10 10
16 10 5 0 9 -4 9 -10z m-80 -31 c0 -6 -4 -7 -10 -4 -5 3 -10 11 -10 16 0 6 5
7 10 4 6 -3 10 -11 10 -16z m2727 -21 c-3 -8 -6 -5 -6 6 -1 11 2 17 5 13 3 -3
4 -12 1 -19z m-160 -20 c-3 -8 -6 -5 -6 6 -1 11 2 17 5 13 3 -3 4 -12 1 -19z
m108 -32 c-14 -10 -14 -14 8 -33 14 -11 27 -27 30 -34 4 -11 8 -11 14 -2 15
21 33 -2 39 -53 4 -36 3 -45 -5 -34 -6 8 -11 23 -11 33 0 11 -5 15 -11 11 -8
-4 -9 1 -4 17 4 16 3 20 -3 10 -7 -10 -17 -4 -43 28 -18 23 -35 53 -36 67 -4
23 -2 24 17 14 20 -11 20 -13 5 -24z m99 -15 c14 -15 19 -35 18 -69 -1 -46 -1
-46 13 -22 9 17 15 20 16 10 4 -27 6 -35 19 -65 13 -32 27 -165 17 -165 -13 0
-40 74 -47 128 -5 39 -8 46 -9 23 -1 -42 -16 -32 -17 12 -3 106 -3 106 -31
119 -19 9 -29 22 -31 41 -3 25 -1 27 15 19 10 -6 27 -20 37 -31z m-98 -53 c30
-34 78 -111 63 -103 -9 6 -11 0 -6 -23 4 -19 2 -32 -3 -32 -6 0 -10 7 -10 15
0 8 -4 15 -9 15 -4 0 -7 12 -5 28 2 15 1 21 -2 15 -9 -19 -34 10 -34 39 0 26
-13 50 -26 48 -5 -1 -10 3 -12 9 -7 20 24 12 44 -11z m-5539 -10 c-3 -8 -6 -5
-6 6 -1 11 2 17 5 13 3 -3 4 -12 1 -19z m2463 2 c0 -5 -4 -10 -10 -10 -5 0
-10 5 -10 10 0 6 5 10 10 10 6 0 10 -4 10 -10z m2977 -100 c3 -24 -15 -37 -23
-16 -7 19 3 52 13 42 4 -4 8 -15 10 -26z m333 -49 c0 -72 -8 -61 -15 20 -4 45
-3 60 5 49 5 -8 10 -39 10 -69z m-3533 -3 c-2 -13 -4 -3 -4 22 0 25 2 35 4 23
2 -13 2 -33 0 -45z m3307 25 c13 -21 27 -49 31 -63 7 -22 6 -23 -9 -11 -9 7
-16 21 -16 31 0 10 -6 23 -14 29 -13 11 -29 51 -20 51 2 0 15 -17 28 -37z
m-28 -26 c12 -23 13 -32 5 -35 -9 -3 -9 -8 2 -21 25 -29 28 -50 7 -63 -14 -9
-16 -16 -9 -25 6 -7 7 -18 3 -25 -4 -7 -9 -24 -10 -37 -2 -14 -8 -27 -14 -29
-5 -2 -7 -8 -4 -13 3 -6 -1 -18 -9 -27 -9 -9 -19 -29 -22 -44 -4 -16 -10 -28
-14 -28 -12 0 -55 146 -48 163 3 8 0 20 -6 26 -9 10 -8 15 4 24 8 7 22 27 30
45 7 17 17 32 21 32 3 0 5 11 4 25 -2 13 1 22 5 19 5 -3 9 0 9 5 0 6 5 11 11
11 7 0 8 -11 4 -29 -4 -18 -2 -32 6 -37 8 -4 9 -3 5 5 -4 6 -3 18 3 24 7 9 6
21 -4 41 -18 33 -19 39 -5 31 6 -3 17 -20 26 -38z m124 4 c0 -9 8 -26 18 -37
22 -24 53 -99 44 -108 -3 -4 -7 -17 -7 -29 -2 -35 -25 -107 -34 -107 -10 0
-21 25 -21 43 0 7 8 3 16 -8 15 -19 15 -19 8 9 -5 21 -4 27 5 22 16 -10 14 7
-4 30 -11 14 -14 15 -9 3 3 -10 1 -20 -5 -24 -7 -4 -11 14 -11 54 0 40 -5 65
-15 75 -19 19 -19 27 0 20 13 -5 14 -2 5 21 -13 34 -13 68 0 60 6 -3 10 -14
10 -24z m-254 -18 c-11 -11 -17 4 -9 23 7 18 8 18 11 1 2 -10 1 -21 -2 -24z
m-546 2 c-7 -8 -17 -12 -22 -9 -6 4 -5 10 3 15 22 14 33 10 19 -6z m10 -25 c0
-5 -7 -10 -16 -10 -8 0 -12 5 -9 10 3 6 10 10 16 10 5 0 9 -4 9 -10z m-103 -6
c-3 -3 -12 -4 -19 -1 -8 3 -5 6 6 6 11 1 17 -2 13 -5z m28 -4 c3 -5 1 -10 -4
-10 -6 0 -11 5 -11 10 0 6 2 10 4 10 3 0 8 -4 11 -10z m645 -9 c0 -11 -4 -23
-10 -26 -6 -4 -10 5 -10 19 0 14 5 26 10 26 6 0 10 -9 10 -19z m347 -33 c-3
-8 -6 -5 -6 6 -1 11 2 17 5 13 3 -3 4 -12 1 -19z m-182 -38 c-3 -6 -2 -10 4
-10 5 0 9 -13 9 -28 -1 -15 4 -38 11 -50 10 -18 9 -22 -3 -22 -14 0 -27 33
-32 80 -2 14 -5 39 -9 55 -5 30 -5 30 10 7 9 -12 13 -27 10 -32z m-3361 18
c-3 -4 5 -8 18 -9 13 0 17 -3 11 -6 -7 -2 -13 -11 -13 -19 0 -17 -31 -19 -48
-2 -22 22 -15 48 12 46 14 -1 22 -6 20 -10z m2676 -35 c0 -12 -53 -34 -73 -29
-7 1 -9 1 -4 -1 11 -7 -2 -23 -20 -23 -9 0 -13 6 -9 15 3 9 0 15 -10 15 -8 0
-12 -4 -9 -10 3 -5 3 -11 -2 -11 -4 -1 -19 -3 -33 -6 -57 -10 -88 -10 -101 -2
-11 7 -11 9 -1 9 9 0 11 7 7 20 -6 18 -3 20 22 15 15 -4 34 -8 41 -11 6 -2 12
2 12 9 0 7 7 4 15 -7 13 -17 15 -17 40 8 23 23 34 26 76 24 29 -2 49 -8 49
-15z m831 -26 c-8 -8 -11 -7 -11 4 0 9 3 19 7 23 4 4 9 2 11 -4 3 -7 -1 -17
-7 -23z m-174 1 c-3 -8 -6 -5 -6 6 -1 11 2 17 5 13 3 -3 4 -12 1 -19z m-937
-8 c0 -5 -2 -10 -4 -10 -3 0 -8 5 -11 10 -3 6 -1 10 4 10 6 0 11 -4 11 -10z
m1008 -13 c5 -24 -15 -21 -21 4 -3 13 -1 19 6 16 7 -2 13 -11 15 -20z m98 -42
c-11 -44 -28 -80 -33 -68 -6 18 16 93 28 93 7 0 9 -10 5 -25z m-170 1 c8 -8
14 -19 13 -23 -3 -12 13 -67 23 -80 5 -7 5 -14 -1 -17 -6 -4 -6 -18 -1 -35 6
-21 4 -35 -6 -48 -7 -10 -14 -30 -14 -45 0 -29 -15 -46 -23 -26 -5 12 -11 -16
-8 -34 0 -5 -3 -8 -8 -8 -5 0 -24 -25 -41 -55 -17 -30 -36 -55 -41 -55 -5 0
-8 -4 -6 -8 2 -8 -34 -61 -60 -87 -7 -7 -9 -15 -6 -19 4 -3 2 -6 -4 -6 -6 0
-20 -15 -32 -32 -17 -27 -21 -29 -21 -13 -1 14 -9 6 -25 -25 -22 -41 -24 -43
-25 -18 0 15 5 30 11 34 6 3 8 17 5 30 -8 29 2 74 16 74 5 0 6 -4 3 -10 -3 -5
-2 -10 2 -10 5 0 14 20 21 46 8 31 16 43 25 38 6 -4 9 -4 5 1 -4 4 -1 20 7 34
23 45 55 144 55 170 0 20 3 22 12 13 9 -9 9 -22 0 -57 -7 -25 -11 -62 -11 -83
2 -35 2 -34 10 13 5 28 11 82 14 120 5 54 15 88 47 153 22 45 43 82 45 82 3 0
11 -7 19 -14z m-736 -6 c-14 -4 -34 -8 -45 -8 -16 0 -15 2 5 8 14 4 34 8 45 8
16 0 15 -2 -5 -8z m205 -26 c-8 -20 -15 -39 -15 -42 0 -3 -3 -3 -6 0 -6 7 22
78 31 78 3 0 -2 -16 -10 -36z m596 -7 c-13 -13 -26 -3 -16 12 3 6 11 8 17 5 6
-4 6 -10 -1 -17z m-5571 9 c0 -3 -4 -8 -10 -11 -5 -3 -10 -1 -10 4 0 6 5 11
10 11 6 0 10 -2 10 -4z m4849 -10 c-22 -22 -84 -56 -95 -52 -8 3 -11 0 -7 -10
8 -20 36 -17 51 6 7 11 16 20 21 20 17 0 -22 -63 -68 -111 -26 -26 -45 -52
-44 -56 4 -14 -79 -60 -130 -72 -40 -10 -50 -9 -62 3 -18 18 -70 30 -86 20 -7
-4 -10 -1 -7 7 3 8 13 16 24 17 10 2 33 10 49 17 17 7 39 16 50 21 17 7 15 9
-12 12 -18 2 -41 -2 -53 -8 -26 -14 -45 -4 -29 16 6 7 9 20 6 28 -4 9 4 16 24
20 16 3 29 11 29 17 0 11 -28 9 -61 -5 -12 -5 -18 -1 -22 16 -4 13 -2 25 3 26
6 2 10 10 10 18 0 8 3 14 7 14 18 0 79 -26 86 -37 11 -17 46 -17 53 0 3 8 20
14 40 15 19 1 43 6 53 12 11 5 30 10 43 10 13 0 28 4 34 10 5 5 27 14 49 19
22 5 42 9 44 10 2 1 2 -1 0 -3z m731 -66 c0 -4 -7 -21 -15 -36 l-15 -29 2 35
c1 19 -2 46 -6 60 l-8 25 21 -24 c11 -13 21 -27 21 -31z m-5550 21 c16 -30 12
-36 -10 -16 -21 19 -26 35 -10 35 5 0 14 -9 20 -19z m5278 -181 c-4 -67 -38
-154 -65 -164 -10 -4 -13 6 -12 42 1 42 2 44 9 17 7 -28 8 -28 9 -5 0 14 8 35
16 46 20 30 7 38 -17 11 l-19 -22 5 34 c3 18 6 47 6 63 0 16 4 27 9 24 5 -3 9
4 9 17 1 12 3 33 5 47 2 14 5 36 6 50 2 18 8 8 23 -35 14 -43 19 -78 16 -125z
m-735 163 c-7 -2 -19 -2 -25 0 -7 3 -2 5 12 5 14 0 19 -2 13 -5z m744 -15 c-3
-8 -6 -5 -6 6 -1 11 2 17 5 13 3 -3 4 -12 1 -19z m-5227 -18 c0 -5 -5 -10 -11
-10 -5 0 -7 5 -4 10 3 6 8 10 11 10 2 0 4 -4 4 -10z m2217 -122 c-3 -7 -5 -2
-5 12 0 14 2 19 5 13 2 -7 2 -19 0 -25z m-57 -50 c0 -6 -7 -5 -15 2 -8 7 -15
17 -15 22 0 6 7 5 15 -2 8 -7 15 -17 15 -22z m2240 -7 c17 -5 21 -9 12 -15 -7
-4 -18 -3 -25 2 -7 5 -21 12 -32 15 l-20 5 20 0 c11 0 31 -3 45 -7z m-4136
-16 c3 -8 2 -15 -3 -15 -5 0 -14 7 -21 15 -10 12 -10 15 3 15 8 0 17 -7 21
-15z m1960 -14 c3 -4 -6 -6 -19 -3 -14 2 -25 6 -25 8 0 8 39 4 44 -5z m861
-271 c-3 -5 -10 -10 -16 -10 -5 0 -9 5 -9 10 0 6 7 10 16 10 8 0 12 -4 9 -10z
m1270 -210 c-3 -5 -12 -10 -18 -10 -7 0 -6 4 3 10 19 12 23 12 15 0z"/>
<path d="M6761 9784 c0 -11 3 -14 6 -6 3 7 2 16 -1 19 -3 4 -6 -2 -5 -13z"/>
<path d="M3570 8600 c0 -5 5 -10 10 -10 6 0 10 5 10 10 0 6 -4 10 -10 10 -5 0
-10 -4 -10 -10z"/>
<path d="M3415 8560 c-3 -6 1 -7 9 -4 18 7 21 14 7 14 -6 0 -13 -4 -16 -10z"/>
<path d="M3520 8510 c-8 -14 -15 -29 -15 -35 -1 -5 -5 -18 -9 -28 -5 -10 -6
-20 -4 -23 8 -7 50 86 45 99 -2 7 -10 1 -17 -13z"/>
<path d="M3350 8283 c0 -5 -10 -15 -22 -21 -13 -6 -18 -11 -12 -11 16 -1 50
27 41 35 -4 4 -7 3 -7 -3z"/>
<path d="M3260 8245 c-7 -8 -8 -15 -2 -15 5 0 15 7 22 15 7 8 8 15 2 15 -5 0
-15 -7 -22 -15z"/>
<path d="M2980 8065 c-7 -8 -19 -15 -27 -15 -8 0 -12 -4 -9 -9 3 -5 15 -7 26
-4 12 3 18 8 16 11 -3 3 2 11 12 18 9 7 12 14 6 14 -6 0 -17 -7 -24 -15z"/>
<path d="M9166 7245 c-3 -9 -6 -22 -5 -28 0 -7 5 -1 10 12 5 13 8 26 5 28 -2
2 -6 -3 -10 -12z"/>
<path d="M9136 7191 c-4 -7 -5 -15 -2 -18 9 -9 19 4 14 18 -4 11 -6 11 -12 0z"/>
<path d="M9150 6580 c0 -5 5 -10 10 -10 6 0 10 5 10 10 0 6 -4 10 -10 10 -5 0
-10 -4 -10 -10z"/>
<path d="M9260 6575 c0 -5 5 -17 10 -25 5 -8 10 -10 10 -5 0 6 -5 17 -10 25
-5 8 -10 11 -10 5z"/>
<path d="M9141 6464 c0 -11 3 -14 6 -6 3 7 2 16 -1 19 -3 4 -6 -2 -5 -13z"/>
<path d="M9225 6403 c3 -32 8 -69 10 -83 4 -19 3 -21 -4 -9 -6 8 -12 32 -14
53 -2 20 -9 42 -15 48 -8 8 -9 2 -1 -26 6 -21 8 -52 5 -69 -4 -22 -3 -26 2
-13 16 37 22 -9 12 -96 -10 -84 -6 -117 5 -54 4 20 11 34 15 31 7 -4 7 42 2
223 -1 28 -6 52 -12 52 -6 0 -8 -23 -5 -57z m12 -185 c-3 -8 -6 -5 -6 6 -1 11
2 17 5 13 3 -3 4 -12 1 -19z"/>
<path d="M9142 6410 c0 -14 2 -19 5 -12 2 6 2 18 0 25 -3 6 -5 1 -5 -13z"/>
<path d="M9266 6365 c8 -37 14 -45 14 -19 0 10 -5 26 -10 34 -8 11 -9 7 -4
-15z"/>
<path d="M9543 6195 c0 -22 2 -30 4 -17 2 12 2 30 0 40 -3 9 -5 -1 -4 -23z"/>
<path d="M9292 6185 c0 -11 4 -31 8 -45 6 -20 8 -21 8 -5 0 11 -4 31 -8 45 -6
20 -8 21 -8 5z"/>
<path d="M9532 6100 c0 -19 2 -27 5 -17 2 9 2 25 0 35 -3 9 -5 1 -5 -18z"/>
<path d="M9230 5831 c0 -6 4 -13 10 -16 6 -3 7 1 4 9 -7 18 -14 21 -14 7z"/>
<path d="M9171 5594 c0 -11 3 -14 6 -6 3 7 2 16 -1 19 -3 4 -6 -2 -5 -13z"/>
<path d="M8912 5210 c14 -22 24 -19 15 5 -4 8 -11 15 -17 15 -6 0 -6 -7 2 -20z"/>
<path d="M8870 5181 c0 -10 39 -45 44 -40 3 2 -6 14 -20 26 -13 12 -24 18 -24
14z"/>
<path d="M9100 5163 c0 -13 5 -23 10 -23 13 0 13 11 0 30 -8 12 -10 11 -10 -7z"/>
<path d="M8250 5150 c-11 -7 -7 -10 18 -10 20 0 31 4 27 10 -8 13 -26 13 -45
0z"/>
<path d="M8105 5110 c3 -5 8 -10 11 -10 2 0 4 5 4 10 0 6 -5 10 -11 10 -5 0
-7 -4 -4 -10z"/>
<path d="M8965 4960 c-3 -6 1 -7 9 -4 18 7 21 14 7 14 -6 0 -13 -4 -16 -10z"/>
<path d="M8832 4624 c-13 -20 -27 -32 -34 -28 -7 5 -8 3 -3 -6 4 -7 2 -16 -6
-21 -7 -4 -10 -11 -6 -16 9 -8 39 25 62 71 21 41 14 41 -13 0z"/>
<path d="M8740 4530 c0 -5 7 -10 16 -10 8 0 12 5 9 10 -3 6 -10 10 -16 10 -5
0 -9 -4 -9 -10z"/>
<path d="M8188 4963 c6 -2 18 -2 25 0 6 3 1 5 -13 5 -14 0 -19 -2 -12 -5z"/>
<path d="M7990 4949 c0 -5 5 -7 10 -4 6 3 10 8 10 11 0 2 -4 4 -10 4 -5 0 -10
-5 -10 -11z"/>
<path d="M7980 4886 c0 -2 7 -7 16 -10 8 -3 12 -2 9 4 -6 10 -25 14 -25 6z"/>
<path d="M8101 4881 c-10 -7 -7 -9 12 -8 15 1 27 5 27 10 0 10 -22 9 -39 -2z"/>
<path d="M8766 4875 c-4 -16 -11 -38 -17 -47 -5 -10 -5 -18 0 -18 13 0 33 55
28 77 -3 13 -6 10 -11 -12z"/>
<path d="M8745 4790 c3 -5 8 -10 11 -10 2 0 4 5 4 10 0 6 -5 10 -11 10 -5 0
-7 -4 -4 -10z"/>
<path d="M7695 11420 c3 -5 8 -10 11 -10 2 0 4 5 4 10 0 6 -5 10 -11 10 -5 0
-7 -4 -4 -10z"/>
<path d="M7886 11342 c-4 -6 0 -25 9 -42 19 -37 27 -39 15 -2 -5 15 -10 34
-12 42 -3 10 -6 11 -12 2z"/>
<path d="M7938 11305 c-2 -19 -1 -35 3 -35 4 0 9 16 11 35 2 19 1 35 -3 35 -4
0 -9 -16 -11 -35z"/>
<path d="M8010 11143 c0 -2 7 -11 15 -19 15 -15 40 -10 30 5 -5 10 -45 22 -45
14z"/>
<path d="M8091 11104 c0 -11 3 -14 6 -6 3 7 2 16 -1 19 -3 4 -6 -2 -5 -13z"/>
<path d="M8161 11044 c0 -11 3 -14 6 -6 3 7 2 16 -1 19 -3 4 -6 -2 -5 -13z"/>
<path d="M8290 11040 c0 -5 5 -10 10 -10 6 0 10 5 10 10 0 6 -4 10 -10 10 -5
0 -10 -4 -10 -10z"/>
<path d="M8360 10860 c0 -5 5 -10 11 -10 5 0 7 5 4 10 -3 6 -8 10 -11 10 -2 0
-4 -4 -4 -10z"/>
<path d="M8530 10761 c0 -5 5 -13 10 -16 6 -3 10 -2 10 4 0 5 -4 13 -10 16 -5
3 -10 2 -10 -4z"/>
<path d="M8551 10660 c0 -8 4 -24 9 -35 l9 -20 0 20 c0 11 -4 27 -9 35 -9 13
-10 13 -9 0z"/>
<path d="M4272 10565 c-25 -13 -50 -35 -41 -35 14 0 69 32 69 41 0 5 -1 9 -2
8 -2 -1 -14 -7 -26 -14z"/>
<path d="M8760 10322 c0 -5 7 -13 16 -16 10 -4 14 -1 12 6 -5 15 -28 23 -28
10z"/>
<path d="M3979 10283 c-13 -16 -12 -17 4 -4 9 7 17 15 17 17 0 8 -8 3 -21 -13z"/>
<path d="M4004 10278 c-4 -7 -14 -23 -22 -35 -8 -13 -12 -23 -9 -23 9 0 50 61
44 66 -3 3 -8 -1 -13 -8z"/>
<path d="M8830 10210 c0 -5 5 -10 11 -10 5 0 7 5 4 10 -3 6 -8 10 -11 10 -2 0
-4 -4 -4 -10z"/>
<path d="M3902 10125 c-6 -14 -8 -25 -3 -25 8 0 23 41 17 47 -1 2 -8 -8 -14
-22z"/>
<path d="M3946 10128 c-23 -79 -33 -129 -26 -133 4 -3 11 14 15 36 4 23 14 57
21 75 9 22 10 34 4 34 -6 0 -12 -6 -14 -12z"/>
<path d="M8831 10064 c0 -11 3 -14 6 -6 3 7 2 16 -1 19 -3 4 -6 -2 -5 -13z"/>
<path d="M8849 10021 c6 -10 7 -22 3 -26 -4 -5 -1 -5 6 -1 9 5 9 12 2 27 -6
10 -13 19 -16 19 -2 0 0 -8 5 -19z"/>
<path d="M3867 10007 c-11 -29 -9 -43 4 -30 6 6 9 19 7 29 -3 18 -4 18 -11 1z"/>
<path d="M3910 9974 c-1 -5 -5 -28 -9 -51 -4 -23 -5 -47 -1 -53 4 -6 10 14 14
46 3 31 4 59 1 62 -3 3 -5 1 -5 -4z"/>
<path d="M3866 9881 c-4 -7 -5 -15 -2 -18 9 -9 19 4 14 18 -4 11 -6 11 -12 0z"/>
<path d="M3828 9874 c-5 -4 -8 -19 -8 -33 0 -18 3 -22 11 -14 6 6 9 21 7 33
-1 12 -6 18 -10 14z"/>
<path d="M3775 9830 c-3 -5 -1 -10 4 -10 6 0 11 5 11 10 0 6 -2 10 -4 10 -3 0
-8 -4 -11 -10z"/>
<path d="M3728 9793 c-27 -33 -49 -73 -39 -73 5 0 12 8 15 18 4 10 16 29 27
41 12 12 19 24 17 27 -3 2 -11 -4 -20 -13z"/>
<path d="M8840 9769 c0 -5 5 -7 10 -4 6 3 10 8 10 11 0 2 -4 4 -10 4 -5 0 -10
-5 -10 -11z"/>
<path d="M8851 9724 c0 -11 3 -14 6 -6 3 7 2 16 -1 19 -3 4 -6 -2 -5 -13z"/>
<path d="M3833 9655 c0 -27 2 -38 4 -22 2 15 2 37 0 50 -2 12 -4 0 -4 -28z"/>
<path d="M3667 9683 c-4 -3 -7 -13 -7 -22 1 -13 3 -13 11 2 11 19 8 33 -4 20z"/>
<path d="M8890 9645 c0 -8 2 -15 4 -15 2 0 6 7 10 15 3 8 1 15 -4 15 -6 0 -10
-7 -10 -15z"/>
<path d="M3835 9579 c-4 -12 -3 -25 3 -31 6 -6 11 1 14 21 5 35 -7 42 -17 10z"/>
<path d="M8840 9563 c0 -5 8 -17 17 -28 14 -18 15 -18 9 -2 -3 10 -6 23 -6 28
0 5 -4 9 -10 9 -5 0 -10 -3 -10 -7z"/>
<path d="M6786 9452 c-2 -4 -1 -14 5 -22 7 -12 9 -10 9 8 0 23 -5 28 -14 14z"/>
<path d="M8881 9434 c0 -11 3 -14 6 -6 3 7 2 16 -1 19 -3 4 -6 -2 -5 -13z"/>
<path d="M8864 9384 c3 -8 6 -18 6 -20 0 -3 5 -2 10 1 15 9 12 22 -6 29 -12 5
-15 2 -10 -10z"/>
<path d="M3565 9359 c-10 -30 -2 -32 12 -3 6 13 7 24 3 24 -5 0 -12 -9 -15
-21z"/>
<path d="M3625 9359 c-4 -6 -5 -12 -2 -15 2 -3 7 2 10 11 7 17 1 20 -8 4z"/>
<path d="M8895 9360 c-3 -6 1 -7 9 -4 18 7 21 14 7 14 -6 0 -13 -4 -16 -10z"/>
<path d="M8910 9315 c0 -8 2 -15 4 -15 2 0 11 -3 20 -6 23 -9 20 13 -4 26 -16
9 -20 8 -20 -5z"/>
<path d="M9060 9301 c0 -11 -6 -22 -12 -24 -8 -3 -6 -6 5 -6 12 -1 17 7 17 24
0 14 -2 25 -5 25 -3 0 -5 -9 -5 -19z"/>
<path d="M8990 9279 c0 -5 5 -7 10 -4 6 3 10 8 10 11 0 2 -4 4 -10 4 -5 0 -10
-5 -10 -11z"/>
<path d="M8891 9254 c0 -11 3 -14 6 -6 3 7 2 16 -1 19 -3 4 -6 -2 -5 -13z"/>
<path d="M3526 9233 c-6 -14 -5 -15 5 -6 7 7 10 15 7 18 -3 3 -9 -2 -12 -12z"/>
<path d="M3591 9104 c0 -11 3 -14 6 -6 3 7 2 16 -1 19 -3 4 -6 -2 -5 -13z"/>
<path d="M9121 8763 c0 -4 4 -17 9 -28 8 -19 9 -19 9 2 1 12 -3 25 -9 28 -5 3
-10 3 -9 -2z"/>
<path d="M7218 8468 c-39 -20 -122 -38 -157 -33 -22 2 -43 0 -46 -5 -3 -6 -17
-10 -30 -10 -13 0 -25 -5 -27 -11 -2 -6 -25 -11 -51 -12 -29 -1 -49 -7 -52
-16 -3 -7 -12 -11 -20 -7 -8 3 -18 0 -22 -7 -5 -7 -14 -12 -20 -13 -7 -1 -21
-2 -31 -2 -10 -1 -29 -11 -42 -21 -14 -11 -47 -35 -75 -54 -30 -20 -58 -50
-70 -73 -11 -21 -23 -41 -26 -44 -8 -6 -17 -45 -40 -167 -7 -35 -15 -63 -18
-63 -12 0 6 -134 24 -185 10 -27 26 -72 35 -100 12 -36 25 -54 46 -65 16 -9
41 -28 56 -43 15 -15 37 -27 49 -27 11 0 33 -6 47 -14 15 -8 39 -17 54 -20 15
-4 36 -16 47 -27 11 -12 24 -18 29 -15 6 3 12 1 14 -6 5 -14 119 -29 133 -17
19 14 95 23 95 10 0 -11 8 -8 87 25 17 8 47 14 67 14 21 0 60 13 93 30 31 17
64 30 74 30 28 0 49 11 49 26 0 12 71 54 91 54 22 0 78 50 92 82 15 33 32 48
92 77 44 21 102 87 107 121 5 36 -25 123 -35 98 -3 -7 -12 5 -22 29 -10 24
-26 45 -35 48 -9 3 -31 23 -49 45 -24 31 -41 41 -72 46 -22 4 -46 13 -54 20
-7 8 -18 14 -23 14 -5 0 -17 9 -27 20 -12 13 -26 18 -44 14 -16 -3 -37 3 -56
16 -29 19 -30 20 -6 20 14 0 33 8 43 17 13 12 32 16 61 14 50 -3 54 -6 37 -26
-11 -13 -6 -14 41 -10 30 2 48 1 42 -3 -18 -11 10 -44 31 -36 9 3 23 1 31 -6
8 -7 35 -13 59 -15 49 -3 59 7 49 47 -9 38 -31 56 -61 50 -22 -4 -25 -2 -14 9
21 23 15 49 -13 49 -14 0 -25 -4 -25 -10 0 -5 -4 -10 -10 -10 -5 0 -10 7 -10
15 0 8 9 15 19 15 27 0 37 19 14 26 -10 3 -26 10 -35 15 -12 6 -18 6 -18 -1 0
-5 -13 -10 -30 -10 -16 0 -30 5 -30 10 0 6 -10 10 -22 10 -23 1 -23 1 -3 16
17 13 18 16 5 24 -8 5 -37 7 -64 5 -42 -4 -47 -3 -36 10 15 18 25 17 -147 19
-72 0 -137 -2 -145 -6z m373 -85 c13 -15 11 -16 -11 -10 -14 4 -31 7 -37 7 -7
0 -13 5 -13 10 0 16 46 11 61 -7z m80 -62 l-23 -6 26 -14 c29 -16 19 -31 -23
-31 -17 0 -22 4 -17 16 4 9 1 23 -5 30 -9 12 -4 14 27 13 31 -1 34 -2 15 -8z
m-256 -51 c-3 -5 -18 -10 -33 -9 l-27 1 25 8 c35 11 42 11 35 0z m-15 -30 c0
-5 -2 -10 -4 -10 -3 0 -8 5 -11 10 -3 6 -1 10 4 10 6 0 11 -4 11 -10z m-367
-260 c-3 -11 -9 -20 -14 -20 -10 0 -12 24 -2 33 13 13 21 7 16 -13z m97 -16
c0 -26 -17 -33 -26 -9 -8 20 3 48 16 40 5 -3 10 -17 10 -31z m-251 -124 c12
-10 31 -50 31 -65 0 -11 -8 -14 -32 -11 -18 3 -43 5 -55 5 -27 1 -31 32 -8 51
8 7 15 18 15 24 0 7 5 17 12 24 9 9 14 8 22 -5 5 -10 12 -20 15 -23z m-105
-92 c-9 -14 -23 2 -17 18 4 12 8 13 14 3 4 -7 5 -17 3 -21z m133 -30 c-3 -8
-6 -5 -6 6 -1 11 2 17 5 13 3 -3 4 -12 1 -19z m30 -10 c-3 -7 -5 -2 -5 12 0
14 2 19 5 13 2 -7 2 -19 0 -25z m-182 -8 c3 -5 1 -10 -4 -10 -6 0 -11 5 -11
10 0 6 2 10 4 10 3 0 8 -4 11 -10z"/>
<path d="M2873 8174 l-28 -25 33 16 c17 8 32 20 32 25 0 15 -6 12 -37 -16z"/>
<path d="M3157 7820 c-3 -11 -3 -20 -1 -20 2 0 8 9 14 20 6 11 7 20 2 20 -6 0
-12 -9 -15 -20z"/>
<path d="M3225 7799 c-4 -6 -5 -12 -2 -15 2 -3 7 2 10 11 7 17 1 20 -8 4z"/>
<path d="M3127 7759 c-4 -16 -3 -18 9 -8 16 13 19 29 5 29 -5 0 -11 -9 -14
-21z"/>
<path d="M9261 7750 c0 -14 7 -41 14 -60 l14 -35 -6 45 c-7 53 -23 89 -22 50z"/>
<path d="M3051 7664 c0 -11 3 -14 6 -6 3 7 2 16 -1 19 -3 4 -6 -2 -5 -13z"/>
<path d="M9291 7640 c0 -8 4 -22 9 -30 12 -18 12 -2 0 25 -6 13 -9 15 -9 5z"/>
<path d="M3131 7533 c-1 -6 -4 -20 -7 -30 -5 -17 -5 -17 6 0 6 10 9 23 6 30
-3 9 -5 9 -5 0z"/>
<path d="M3111 7417 c-1 -15 -11 -41 -23 -57 -29 -39 -16 -50 16 -14 27 31 28
36 16 74 l-8 25 -1 -28z"/>
<path d="M3120 7232 c0 -14 -8 -26 -23 -31 -24 -9 -56 -41 -41 -41 11 0 84 51
84 59 0 3 -5 13 -10 21 -8 12 -10 11 -10 -8z"/>
<path d="M9233 7185 c0 -22 2 -30 4 -17 2 12 2 30 0 40 -3 9 -5 -1 -4 -23z"/>
<path d="M3096 7030 c7 -45 7 -76 0 -120 -6 -33 -5 -32 10 9 12 31 19 39 25
30 6 -9 9 -1 9 24 0 24 -5 37 -13 37 -7 0 -18 12 -25 28 -11 26 -11 26 -6 -8z"/>
<path d="M9180 6921 c0 -5 5 -13 10 -16 6 -3 10 -2 10 4 0 5 -4 13 -10 16 -5
3 -10 2 -10 -4z"/>
<path d="M3078 6794 c-5 -4 -8 -16 -8 -28 0 -14 3 -17 11 -9 6 6 9 19 7 28 -1
9 -6 13 -10 9z"/>
<path d="M3066 6004 c-11 -8 -16 -14 -10 -14 13 0 39 18 34 24 -3 2 -14 -2
-24 -10z"/>
<path d="M3160 5900 c0 -5 5 -10 10 -10 6 0 10 5 10 10 0 6 -4 10 -10 10 -5 0
-10 -4 -10 -10z"/>
<path d="M3110 5829 c0 -5 5 -7 10 -4 6 3 10 8 10 11 0 2 -4 4 -10 4 -5 0 -10
-5 -10 -11z"/>
<path d="M5500 5795 c0 -8 5 -15 10 -15 6 0 10 7 10 15 0 8 -4 15 -10 15 -5 0
-10 -7 -10 -15z"/>
<path d="M3291 5694 c0 -11 3 -14 6 -6 3 7 2 16 -1 19 -3 4 -6 -2 -5 -13z"/>
<path d="M3367 5484 c-4 -4 -7 -17 -7 -28 1 -19 1 -20 11 -3 11 19 8 43 -4 31z"/>
<path d="M3357 5233 c-10 -9 -9 -23 2 -23 5 0 11 7 15 15 5 15 -5 20 -17 8z"/>
<path d="M9250 5215 c0 -8 4 -15 10 -15 5 0 7 7 4 15 -4 8 -8 15 -10 15 -2 0
-4 -7 -4 -15z"/>
<path d="M8601 5124 c0 -11 3 -14 6 -6 3 7 2 16 -1 19 -3 4 -6 -2 -5 -13z"/>
<path d="M9300 5102 c6 -13 14 -21 18 -18 3 4 -2 14 -12 24 -18 16 -18 16 -6
-6z"/>
<path d="M8586 5074 c-9 -23 -7 -36 3 -30 12 8 21 46 11 46 -4 0 -11 -7 -14
-16z"/>
<path d="M3360 5035 c-6 -8 -10 -19 -8 -26 2 -6 9 0 16 15 13 29 10 33 -8 11z"/>
<path d="M8692 4985 c0 -16 2 -22 5 -12 2 9 2 23 0 30 -3 6 -5 -1 -5 -18z"/>
<path d="M9372 4969 c6 -16 12 -28 14 -26 5 5 -13 57 -20 57 -3 0 0 -14 6 -31z"/>
<path d="M9160 4905 c1 -20 39 -149 39 -133 1 28 -20 122 -30 133 -6 6 -9 6
-9 0z"/>
<path d="M9172 4755 c0 -16 2 -22 5 -12 2 9 2 23 0 30 -3 6 -5 -1 -5 -18z"/>
<path d="M8525 4720 c-3 -5 -1 -10 4 -10 6 0 11 5 11 10 0 6 -2 10 -4 10 -3 0
-8 -4 -11 -10z"/>
<path d="M9192 4700 c0 -19 2 -27 5 -17 2 9 2 25 0 35 -3 9 -5 1 -5 -18z"/>
<path d="M7000 4669 c0 -5 5 -7 10 -4 6 3 10 8 10 11 0 2 -4 4 -10 4 -5 0 -10
-5 -10 -11z"/>
<path d="M9160 4635 c0 -7 -3 -22 -6 -32 -5 -15 -4 -15 5 -3 9 12 11 11 11 -7
0 -14 -6 -23 -15 -23 -8 0 -15 -7 -15 -15 0 -8 5 -14 11 -12 6 1 14 -4 17 -12
2 -8 1 -11 -4 -8 -5 3 -9 -25 -10 -62 0 -101 -43 -192 -108 -232 -26 -16 -27
-19 -10 -19 41 0 112 100 128 180 4 19 9 79 12 134 2 54 8 104 13 110 7 8 4
12 -10 13 -10 1 -19 -4 -19 -12z"/>
<path d="M9203 4595 c0 -22 2 -30 4 -17 2 12 2 30 0 40 -3 9 -5 -1 -4 -23z"/>
<path d="M3815 4610 c3 -5 8 -10 11 -10 2 0 4 5 4 10 0 6 -5 10 -11 10 -5 0
-7 -4 -4 -10z"/>
<path d="M8131 4543 c-1 -17 5 -23 19 -23 11 0 20 5 20 10 0 6 -6 10 -14 10
-8 0 -17 6 -19 13 -3 6 -6 2 -6 -10z"/>
<path d="M4415 4440 c3 -5 11 -10 16 -10 6 0 7 5 4 10 -3 6 -11 10 -16 10 -6
0 -7 -4 -4 -10z"/>
<path d="M8842 4282 c-15 -5 3 -32 22 -32 6 0 22 -9 36 -20 14 -11 32 -19 40
-19 12 0 12 2 -2 7 -9 4 -31 21 -50 38 -18 17 -39 29 -46 26z"/>
<path d="M8988 4213 c7 -3 16 -2 19 1 4 3 -2 6 -13 5 -11 0 -14 -3 -6 -6z"/>
<path d="M3770 4040 c-13 -8 -13 -10 2 -10 9 0 18 -5 20 -11 2 -5 11 -7 21 -3
17 6 17 7 0 20 -22 16 -24 16 -43 4z"/>
<path d="M3893 4033 c-21 -8 -15 -22 7 -16 11 3 20 9 20 14 0 10 -8 10 -27 2z"/>
</g>
</svg>
